<?xml version="1.0" encoding="UTF-8"?>
<svg width="32px" height="32px" viewBox="0 0 32 32" version="1.1" xmlns="http://www.w3.org/2000/svg">
    <title>Pokémon Favicon</title>
    <g stroke="none" stroke-width="1" fill="none" fill-rule="evenodd">
        <circle fill="#FFFFFF" cx="16" cy="16" r="16"></circle>
        <circle stroke="#333333" stroke-width="2" fill="#FFFFFF" cx="16" cy="16" r="14"></circle>
        <path d="M16,5 L18,9 C20,8 22,8 24,9 C25,11 25,13 24,15 C22,16 20,16 18,15 L16,19 L14,15 C12,16 10,16 8,15 C7,13 7,11 8,9 C10,8 12,8 14,9 L16,5 Z" fill="#333333"></path>
        <circle fill="#FF3333" cx="11" cy="12" r="2"></circle>
        <circle fill="#FF3333" cx="21" cy="12" r="2"></circle>
        <path d="M13,18 C14,19 15,19.5 16,19.5 C17,19.5 18,19 19,18 C19,20 17.5,22 16,22 C14.5,22 13,20 13,18 Z" fill="#333333"></path>
        <path d="M12,24 C13,25 14.5,25.5 16,25.5 C17.5,25.5 19,25 20,24" stroke="#333333" stroke-width="1.5" stroke-linecap="round"></path>
        <path d="M10,21 L8,23 M22,21 L24,23" stroke="#333333" stroke-width="1.5" stroke-linecap="round"></path>
    </g>
</svg>
